<?xml version="1.0" encoding="UTF-8"?>
<svg xmlns="http://www.w3.org/2000/svg" xmlns:xlink="http://www.w3.org/1999/xlink" width="447px" height="447px" viewBox="0 0 447 447" version="1.1">
<g id="surface1">
<path style=" stroke:none;fill-rule:evenodd;fill:rgb(86.666667%,55.294118%,0%);fill-opacity:1;" d="M 232.535156 2.648438 C 232.535156 4.113281 232.6875 18.640625 232.871094 34.933594 C 233.113281 56.660156 233.136719 65.09375 232.957031 66.578125 C 232.019531 74.292969 227.597656 79.355469 220.160156 81.226562 C 218.492188 81.644531 217.566406 81.71875 214.019531 81.71875 C 210.441406 81.71875 209.550781 81.648438 207.808594 81.210938 C 201.601562 79.660156 197.464844 75.535156 195.945312 69.378906 C 195.273438 66.648438 195.128906 61.386719 194.816406 28.601562 C 194.671875 13.058594 194.523438 0.308594 194.492188 0.273438 C 194.277344 0.03125 176.707031 2.472656 176.390625 2.792969 C 176.1875 2.992188 176.765625 59.199219 177.003906 62.464844 C 177.363281 67.40625 178.378906 71.457031 180.25 75.425781 C 185 85.492188 195.230469 91.933594 208.375 93.140625 C 215.738281 93.816406 223.792969 92.972656 230.152344 90.863281 C 232.3125 90.148438 236.78125 87.890625 238.589844 86.605469 C 245.921875 81.386719 250.328125 73.316406 251.257812 63.40625 C 251.421875 61.667969 251.390625 52.21875 251.160156 31.566406 C 250.980469 15.414062 250.804688 2.175781 250.769531 2.148438 C 250.632812 2.035156 241.519531 0.894531 238.175781 0.570312 C 236.25 0.382812 234.191406 0.175781 233.601562 0.105469 L 232.53125 -0.015625 L 232.535156 2.648438 M 263.007812 11.855469 L 263.007812 20.769531 L 264.304688 21.027344 C 293.25 26.816406 322.421875 39.867188 346.199219 57.660156 C 348.0625 59.054688 349.789062 60.28125 350.039062 60.386719 C 350.285156 60.488281 351.960938 60.792969 353.761719 61.054688 C 360.292969 62.007812 368.902344 64.039062 379.09375 67.039062 C 382.222656 67.960938 384.828125 68.671875 384.878906 68.621094 C 384.976562 68.523438 378.441406 62.105469 374.871094 58.792969 C 347.039062 32.976562 312.863281 14.601562 276.023438 5.652344 C 271.941406 4.660156 263.828125 2.9375 263.238281 2.9375 C 263.085938 2.9375 263.007812 5.9375 263.007812 11.855469 M 116.980469 28.738281 C 109.792969 29.707031 101.652344 33.445312 94.949219 38.851562 C 86.441406 45.710938 81.800781 52.539062 80.125 60.65625 C 79.519531 63.597656 79.460938 68.355469 80 71.386719 C 80.761719 75.703125 82.816406 80.804688 85.34375 84.675781 C 86.398438 86.285156 120.875 135.992188 121.210938 136.382812 C 121.3125 136.503906 129.839844 130.671875 135.855469 126.367188 C 136.359375 126.007812 136.304688 125.925781 117.34375 98.671875 C 103.730469 79.105469 97.992188 70.671875 97.148438 69.003906 C 95.664062 66.066406 95.15625 63.957031 95.175781 60.820312 C 95.191406 58.78125 95.289062 58.167969 95.882812 56.464844 C 96.8125 53.789062 97.75 52.292969 99.941406 49.972656 C 103.199219 46.523438 108.050781 43.542969 112.089844 42.507812 C 114.246094 41.953125 117.332031 41.910156 119.28125 42.40625 C 122.558594 43.238281 126.136719 45.59375 128.511719 48.476562 C 129.164062 49.273438 138.179688 62.136719 148.546875 77.070312 C 160.113281 93.722656 167.511719 104.175781 167.6875 104.117188 C 168.183594 103.945312 182.40625 93.953125 182.410156 93.773438 C 182.414062 93.589844 147.820312 43.78125 146.097656 41.488281 C 144.605469 39.503906 140.808594 35.765625 138.699219 34.210938 C 135.449219 31.808594 131.292969 29.9375 127.214844 29.039062 C 125.273438 28.609375 119.246094 28.433594 116.980469 28.738281 M 52.679688 75.664062 C 51.707031 76.890625 49.921875 79.199219 48.710938 80.796875 L 46.515625 83.703125 L 48.746094 86.335938 C 75.125 117.484375 90.949219 136.214844 90.914062 136.242188 C 90.886719 136.261719 75.324219 134.566406 56.328125 132.472656 C 37.328125 130.378906 21.675781 128.660156 21.539062 128.65625 C 20.960938 128.640625 13.863281 148.039062 14.289062 148.464844 C 14.402344 148.574219 110.347656 155.96875 112.089844 156 C 112.210938 156.003906 113.214844 154.269531 114.3125 152.148438 C 116.105469 148.6875 116.277344 148.257812 115.980469 147.914062 C 115.796875 147.703125 101.957031 130.945312 85.226562 110.675781 C 68.496094 90.40625 54.726562 73.734375 54.628906 73.628906 C 54.53125 73.523438 53.65625 74.4375 52.679688 75.664062 M 400.421875 93.324219 C 399.476562 99.089844 398.671875 104.761719 398.101562 109.691406 L 397.71875 113 L 400.207031 117.152344 C 423.265625 155.632812 433.164062 199.839844 428.695312 244.414062 C 424.851562 282.75 410.335938 319.152344 386.625 349.890625 C 381.074219 357.089844 376.109375 362.703125 369.015625 369.796875 C 340.96875 397.851562 306.261719 416.898438 267.523438 425.492188 C 244.9375 430.503906 220.390625 431.570312 196.859375 428.5625 C 165.839844 424.597656 136.695312 413.777344 110.394531 396.460938 C 106.324219 393.777344 101.136719 390.074219 97.726562 387.417969 C 94.910156 385.21875 94.789062 385.148438 93.464844 384.941406 C 88.984375 384.230469 78.734375 381.828125 68.886719 379.183594 C 65.113281 378.171875 61.925781 377.375 61.796875 377.417969 C 61.511719 377.515625 71.890625 387.511719 76.21875 391.304688 C 106.054688 417.472656 141.105469 434.910156 179.335938 442.597656 C 198.734375 446.5 219.480469 447.832031 239.078125 446.433594 C 289.597656 442.832031 336.675781 422.550781 374.191406 388.21875 C 378.640625 384.148438 387.363281 375.230469 391.265625 370.761719 C 410.296875 348.984375 424.648438 324.507812 434.203125 297.546875 C 441.730469 276.304688 446.089844 253.085938 446.722656 230.847656 L 446.886719 225.082031 L 447.007812 228.925781 C 447.078125 231.082031 447.128906 228.445312 447.128906 222.933594 C 447.128906 216.707031 447.082031 214.589844 447 217.167969 L 446.871094 221.238281 L 446.820312 217.734375 C 446.730469 211.242188 446.039062 202.089844 445.0625 194.449219 C 441.203125 164.253906 431.183594 135.300781 415.453125 108.867188 C 411.6875 102.542969 401.953125 88.179688 401.429688 88.179688 C 401.339844 88.179688 400.886719 90.492188 400.421875 93.324219 M 201.601562 178.117188 L 201.601562 195.929688 L 223.445312 205.925781 C 235.457031 211.425781 245.363281 215.925781 245.453125 215.925781 C 245.546875 215.925781 245.625 203.410156 245.625 188.117188 L 245.625 160.304688 L 201.601562 160.304688 L 201.601562 178.117188 M 7.9375 163.851562 C 4.5 176.253906 2.144531 189.257812 0.75 203.488281 C 0.148438 209.621094 0.140625 237.140625 0.738281 243.058594 C 2.628906 261.757812 5.855469 277.3125 11.167969 293.363281 C 18.199219 314.59375 28.164062 334.171875 41.605469 353.140625 C 44.25 356.871094 44.578125 357.253906 44.730469 356.765625 C 44.820312 356.464844 45.210938 353.878906 45.59375 351.019531 C 46.425781 344.804688 47.03125 340.644531 47.753906 336.183594 L 48.285156 332.875 L 46.082031 329.171875 C 39.835938 318.691406 34.300781 307.121094 30.03125 295.625 C 23.398438 277.757812 19.488281 260.195312 17.703125 240.230469 C 17.214844 234.742188 17.015625 218.359375 17.367188 212.386719 C 18.328125 196.023438 20.945312 180.714844 25.382812 165.519531 C 25.945312 163.597656 26.367188 161.992188 26.328125 161.949219 C 26.285156 161.910156 22.960938 161.628906 18.9375 161.324219 C 14.917969 161.023438 11.003906 160.714844 10.246094 160.636719 L 8.867188 160.5 L 7.9375 163.851562 "/>
<path style=" stroke:none;fill-rule:evenodd;fill:rgb(5.098039%,17.254902%,42.352941%);fill-opacity:1;" d="M 315.15625 66.152344 C 314.722656 66.203125 313.199219 66.355469 311.769531 66.484375 C 289.847656 68.503906 272.347656 75.765625 263.382812 86.558594 C 257.925781 93.125 254.574219 101.242188 253.199219 111.207031 C 252.617188 115.433594 252.332031 122.3125 252.605469 125.707031 C 253.464844 136.429688 258.035156 146.5625 265.859375 155.082031 C 272.101562 161.878906 281.867188 168.230469 292.585938 172.457031 C 294.507812 173.214844 305.679688 177.3125 317.414062 181.5625 C 331.789062 186.769531 339.464844 189.660156 340.941406 190.429688 C 351.640625 196 359.152344 211.058594 357.851562 224.332031 C 356.828125 234.785156 350.945312 240.667969 339.148438 243.035156 C 334.367188 243.996094 330.824219 244.253906 324.300781 244.113281 C 305.949219 243.726562 291.976562 240.71875 279.917969 234.554688 C 274.753906 231.917969 270.902344 229.140625 264.476562 223.425781 C 262.238281 221.4375 260.347656 219.878906 260.269531 219.960938 C 260.089844 220.148438 258.085938 232.945312 257.027344 240.683594 C 256.582031 243.917969 255.804688 248.628906 255.296875 251.15625 C 254.773438 253.746094 254.457031 255.832031 254.570312 255.929688 C 255.121094 256.429688 271.550781 261.234375 280.503906 263.515625 C 294.910156 267.1875 303.933594 268.835938 315.382812 269.886719 C 320.929688 270.394531 335.785156 270.46875 339.652344 270.007812 C 362.472656 267.277344 378.921875 257.96875 389.507812 241.792969 C 394.730469 233.8125 397.425781 224.832031 397.71875 214.457031 C 397.894531 208.113281 397.414062 203.550781 395.957031 197.746094 C 392.570312 184.246094 382.894531 171.316406 370.242188 163.371094 C 366.304688 160.902344 362.855469 159.34375 341.683594 150.480469 C 330.507812 145.800781 320.503906 141.609375 319.445312 141.164062 C 313.832031 138.804688 306.808594 134.875 302.589844 131.726562 C 298.144531 128.40625 292.84375 122.804688 291.34375 119.839844 C 290.425781 118.027344 290.097656 116.5 290.101562 114.082031 C 290.109375 109.085938 291.605469 105.367188 295.09375 101.65625 C 299.082031 97.410156 304.695312 94.523438 312.222656 92.851562 C 315.472656 92.128906 320.746094 91.347656 322.382812 91.347656 C 323.699219 91.34375 332.738281 92.835938 339.601562 94.1875 C 354.933594 97.199219 366.222656 101.160156 376.789062 107.234375 C 378.09375 107.980469 381.472656 110.121094 384.304688 111.984375 C 387.132812 113.847656 389.484375 115.332031 389.53125 115.285156 C 389.574219 115.238281 389.984375 112.144531 390.433594 108.414062 C 391.503906 99.609375 392.59375 92.480469 393.859375 86.0625 C 394.417969 83.222656 394.84375 80.859375 394.800781 80.816406 C 394.417969 80.4375 382.917969 76.34375 377.625 74.703125 C 359.183594 68.996094 342.949219 66.484375 322.382812 66.160156 C 318.84375 66.105469 315.59375 66.101562 315.15625 66.152344 M 110.28125 176.050781 C 109.910156 176.09375 108.488281 176.238281 107.121094 176.371094 C 90.679688 177.96875 75.925781 182.96875 66.375 190.175781 C 57.515625 196.859375 51.929688 206.835938 49.910156 219.566406 C 49.011719 225.222656 48.726562 232.554688 49.230469 237.132812 C 50.171875 245.707031 53.910156 254.457031 59.828125 261.9375 C 61.675781 264.273438 65.957031 268.542969 68.40625 270.496094 C 73.863281 274.84375 80.4375 278.65625 87.820312 281.75 C 89 282.246094 100.074219 286.320312 112.425781 290.800781 C 127.703125 296.34375 135.648438 299.339844 137.261719 300.164062 C 143.75 303.476562 149.085938 310.042969 152.230469 318.574219 C 153.605469 322.308594 154.246094 325.660156 154.367188 329.742188 C 154.492188 334.007812 154.191406 336.644531 153.257812 339.488281 C 150.824219 346.890625 144.644531 351.289062 134.1875 353.0625 C 128.902344 353.960938 124.449219 354.1875 118.308594 353.875 C 100.214844 352.949219 88.851562 350.425781 77.480469 344.808594 C 71.277344 341.746094 67.738281 339.242188 60.40625 332.734375 C 58.460938 331.011719 56.816406 329.652344 56.75 329.71875 C 56.585938 329.886719 54.824219 341.003906 53.96875 347.289062 C 53.015625 354.285156 52.273438 358.820312 51.476562 362.535156 C 51.105469 364.269531 50.824219 365.707031 50.855469 365.734375 C 51.234375 366.082031 68.648438 371.140625 75.714844 372.953125 C 94.675781 377.816406 104.757812 379.449219 119.917969 380.109375 C 135.230469 380.773438 147.828125 378.789062 159.160156 373.929688 C 176.921875 366.3125 189.6875 351.351562 193.117188 334.125 C 194.007812 329.667969 194.246094 327.125 194.234375 322.191406 C 194.21875 313.621094 192.707031 306.21875 189.527344 299.128906 C 184.121094 287.085938 173.816406 276.414062 161.726562 270.347656 C 160.378906 269.667969 150.128906 265.277344 138.953125 260.589844 C 112.589844 249.53125 113.613281 249.972656 110.734375 248.535156 C 103.007812 244.683594 97.601562 240.882812 92.78125 235.90625 C 88.574219 231.566406 86.785156 228.464844 86.527344 225.082031 C 85.875 216.441406 91.714844 208.683594 101.9375 204.617188 C 105.308594 203.277344 110.875 202.007812 116.316406 201.34375 L 119.191406 200.992188 L 125.347656 202.03125 C 145.410156 205.421875 156.464844 208.539062 167.398438 213.886719 C 171.75 216.015625 175.351562 218.128906 181.113281 221.933594 C 185.605469 224.902344 186.03125 225.132812 186.128906 224.675781 C 186.1875 224.402344 186.496094 221.941406 186.8125 219.203125 C 187.917969 209.628906 189.460938 199.757812 190.855469 193.316406 C 191.167969 191.886719 191.347656 190.65625 191.261719 190.582031 C 191.082031 190.429688 185.070312 188.179688 180.71875 186.636719 C 177.234375 185.402344 169.523438 183.050781 165.253906 181.925781 C 150.28125 177.964844 133.007812 175.84375 116.605469 175.941406 C 113.5 175.957031 110.65625 176.007812 110.28125 176.050781 M 203.632812 306.453125 L 203.632812 380.300781 L 243.59375 380.300781 L 243.59375 251.042969 L 243.085938 250.804688 C 241.417969 250.023438 204.148438 232.820312 203.914062 232.722656 C 203.691406 232.632812 203.632812 247.46875 203.632812 306.453125 "/>
</g>
</svg>
