<svg xmlns="http://www.w3.org/2000/svg" width="829.1" height="1000" viewBox="0 0 829.1 1000">
	<path d="M224.7,741l376,0l1.5,-399.8l-399,38.9l21.6,360.9z" stroke-width="0" fill="#fff"/>
	<path d="M568.3,245.6l0,21.9l-32.1,67.3l-24,0l32.1,-67.3l-32.9,0l0,-21.9l56.9,0z" stroke-width="0" fill="#3b9883"/>
	<path d="m783.2,174.8v291.3h-49.4v-77.2h-26.8v-18.4h25.8v-31.6h-25.8v-35h-64.8v35h-25.8v31.6h25.8v17.1h-40.2v-189.4h-128.8v107h-145v62.3l-33.6,15.5v-42.7h-61v-95.3l-139.7,-54.3v275.4h-51.9V182.5C42.1,81.7 123.8,0 224.6,0h383.7c96.6,0 174.8,78.3 174.8,174.8Z" stroke-width="0" fill="#3b9883"/>
	<path d="m461.7,653.7h-99.5c-15.4,0 -28,-12.6 -28,-28v-99.5c0,-15.4 12.6,-28 28,-28h99.5c15.4,0 28,12.6 28,28v99.5c0,15.4 -12.6,28 -28,28ZM369.2,618.7h85.4v-85.4h-85.4v85.4Z" stroke-width="0" fill="#3b9883"/>
	<path d="m67.4,818.3c9.8,0 18.8,2.3 26.9,7 8.1,4.7 14.5,11.1 19.2,19.4 4.7,8.3 7,17.9 7,28.7s-4.5,22.2 -13.5,32.5c4.9,4.9 8.8,10.4 11.7,16.5 2.9,6.1 4.3,12.3 4.3,18.6 0,10.9 -2.3,20.4 -7,28.7 -4.7,8.3 -11.1,14.8 -19.2,19.4 -8.1,4.7 -17.1,7 -26.9,7L0,996.2v-177.9h67.4ZM44.7,885.9h18.5c4.4,0 8,-1 10.8,-3 2.8,-2 4.2,-5.2 4.2,-9.4s-1.4,-7.3 -4.2,-9.1c-2.8,-1.9 -6.4,-2.8 -10.8,-2.8h-18.5v24.4ZM44.7,953h18.5c4.4,0 8,-1 10.8,-3 2.8,-2 4.2,-5.2 4.2,-9.4s-1.4,-7.3 -4.2,-9.1c-2.8,-1.9 -6.4,-2.8 -10.8,-2.8h-18.5v24.4Z" stroke-width="0" fill="#262e35"/>
	<path d="m211,996.2v-21.6h-31.5v21.6h-44.7v-62.5c0,-17.6 4.7,-35.4 14.1,-53.3 9.4,-17.9 22.9,-32.7 40.4,-44.5 17.5,-11.8 37.8,-17.7 60.6,-17.7h5.8v177.9h-44.7ZM188.3,899.7c-5.4,10.3 -8.4,20.4 -8.9,30.4h31.5v-53.1c-9.7,4.9 -17.2,12.5 -22.6,22.8Z" stroke-width="0" fill="#262e35"/>
	<path d="m346.9,996.2h-44.7v-91.3l-40.2,-86.7h47.8l14.2,30.8 14.2,-30.8h47.8l-39.1,84.4v93.5Z" stroke-width="0" fill="#262e35"/>
	<path d="m510.1,818.3v43.7h-39.7v134.2h-44.7v-134.2h-39.7v-43.7h124Z" stroke-width="0" fill="#262e35"/>
	<path d="m567.8,818.3c10,0 20.2,2.4 30.6,7.3 10.4,4.8 19.1,12.3 26.2,22.5 7,10.2 10.6,22.6 10.6,37.4 0,19.5 -6.4,35.3 -19.1,47.5 7.3,6.8 11.9,13.8 14,21 2,7.2 3,15.8 3,25.8v16.5h-43.7v-15.3c0,-11.4 -2.3,-18.9 -7,-22.8 -4.7,-3.8 -10,-5.7 -16.1,-5.7v43.7h-44.7v-177.9h46.3ZM584.7,869.7c-3.5,-3.5 -7.4,-5.8 -11.8,-6.9 -4.4,-1.1 -6.6,-1.4 -6.6,-0.9v46.8c0,0.5 2.2,0.2 6.6,-0.9 4.4,-1.1 8.3,-3.4 11.8,-6.9 3.5,-3.5 5.2,-8.7 5.2,-15.6s-1.7,-12.2 -5.2,-15.6Z" stroke-width="0" fill="#262e35"/>
	<path d="m656,860.7c8.3,-14.2 19.6,-25.5 33.8,-33.8 14.2,-8.3 29.7,-12.5 46.5,-12.5s32.3,4.2 46.5,12.5c14.2,8.3 25.5,19.6 33.8,33.8 8.3,14.2 12.5,29.7 12.5,46.5s-4.2,32.3 -12.5,46.5c-8.3,14.2 -19.6,25.5 -33.8,33.8 -14.2,8.3 -29.7,12.5 -46.5,12.5s-32.3,-4.2 -46.5,-12.5c-14.2,-8.3 -25.5,-19.6 -33.8,-33.8 -8.3,-14.2 -12.4,-29.7 -12.4,-46.5s4.2,-32.3 12.4,-46.5ZM695.7,930.7c4.2,7.2 9.9,12.9 17.2,17.2 7.2,4.2 15,6.4 23.5,6.4s16.3,-2.1 23.5,-6.4c7.2,-4.2 12.9,-9.9 17.2,-17.2 4.2,-7.2 6.3,-15 6.3,-23.5s-2.1,-16.3 -6.3,-23.5c-4.2,-7.2 -10,-12.9 -17.2,-17.2 -7.2,-4.2 -15,-6.3 -23.5,-6.3s-16.3,2.1 -23.5,6.3c-7.2,4.2 -12.9,10 -17.2,17.2 -4.2,7.2 -6.3,15 -6.3,23.5s2.1,16.3 6.3,23.5Z" stroke-width="0" fill="#262e35"/>
	<path d="m733.8,466.1v-77.2h-26.8v-18.4h25.8v-31.6h-25.8v-35h-64.8v35h-25.8v31.6h25.8v17.1h-40.2v-189.4h-128.8v107h-145v62.3l-33.6,15.5v-42.7h-61v-95.3l-139.7,-54.3v275.4h-51.9v100.1c0,96.6 78.3,174.8 174.8,174.8h7.8c4.3,0 7.7,-3.5 7.7,-7.7v-265.3c0,-2.9 1.6,-5.5 4.1,-6.8l172.5,-92.1c2.3,-1.2 5,-1.2 7.3,0l172.5,92.1c2.5,1.3 4.1,4 4.1,6.8v265.3c0,4.3 3.5,7.7 7.7,7.7h0c100.8,0 182.5,-81.7 182.5,-182.5v-92.4h-49.4ZM568.3,267.5l-32.1,67.3h-24l32.1,-67.3h-32.9v-21.9h56.9v21.9Z" stroke-width="0" fill="#262e35"/>
</svg>
